<?xml version="1.0" standalone="no"?>
<!DOCTYPE svg PUBLIC "-//W3C//DTD SVG 20010904//EN"
 "http://www.w3.org/TR/2001/REC-SVG-20010904/DTD/svg10.dtd">
<svg version="1.0" xmlns="http://www.w3.org/2000/svg"
 width="500.000000pt" height="500.000000pt" viewBox="0 0 500.000000 500.000000"
 preserveAspectRatio="xMidYMid meet">

<g transform="translate(0.000000,500.000000) scale(0.100000,-0.100000)"
fill="#000000" stroke="none">
<path d="M1513 2839 c-100 -17 -185 -59 -281 -142 l-53 -45 -142 -6 c-78 -4
-226 -8 -330 -10 -103 -2 -191 -6 -194 -10 -12 -11 -9 -204 3 -216 7 -7 104
-12 270 -15 387 -7 381 -6 461 -72 36 -30 88 -65 114 -79 99 -50 138 -54 496
-54 190 0 333 4 333 9 0 7 -200 571 -225 634 -7 15 -25 17 -204 16 -108 -1
-219 -5 -248 -10z m264 -106 c34 -52 -6 -155 -63 -161 l-29 -3 33 22 c56 36
78 103 48 144 -21 29 -58 7 -85 -52 -32 -67 -58 -93 -95 -93 l-31 1 27 14 c15
9 38 38 53 69 47 96 103 119 142 59z m-211 -2 c-15 -15 -31 -41 -36 -57 l-8
-29 -1 28 c-1 41 25 87 51 87 21 0 21 -1 -6 -29z m174 -299 c-201 -89 -210
-92 -210 -72 0 13 14 24 46 36 32 12 41 20 32 26 -9 7 -7 8 7 4 11 -3 47 8 80
23 47 22 64 26 80 18 18 -9 14 -13 -35 -35z m40 -72 c19 -12 20 -11 -80 -55
-187 -82 -170 -77 -170 -56 0 13 29 31 113 69 129 58 118 54 137 42z"/>
<path d="M2047 2840 c30 -12 36 -27 153 -363 l103 -298 50 3 50 3 49 140 c27
76 50 141 52 142 2 2 26 -60 54 -139 l50 -143 49 -3 49 -3 104 298 c117 337
123 351 153 363 16 6 -1 9 -58 9 -71 1 -77 -1 -55 -12 16 -8 28 -25 33 -47 8
-30 -4 -71 -83 -300 -51 -146 -95 -268 -99 -272 -7 -8 -211 566 -211 595 0 10
10 22 23 27 15 6 -11 9 -83 8 -58 0 -95 -3 -82 -5 28 -6 35 -18 97 -195 l52
-149 -50 -144 c-28 -80 -54 -142 -57 -138 -9 11 -210 586 -210 602 0 6 10 16
23 21 15 6 -8 9 -78 9 -68 0 -93 -3 -78 -9z"/>
<path d="M3037 2840 c12 -5 26 -22 30 -37 4 -15 8 -150 8 -299 0 -288 -1 -295
-50 -314 -12 -6 25 -9 95 -9 79 0 108 3 92 9 -12 5 -27 21 -32 35 -14 36 -13
560 1 586 6 11 20 24 32 29 15 6 -15 9 -88 9 -74 0 -103 -3 -88 -9z"/>
<path d="M3277 2840 c12 -5 26 -18 32 -29 7 -12 11 -120 11 -296 0 -176 -4
-284 -11 -296 -6 -11 -20 -24 -32 -29 -16 -6 0 -9 53 -9 55 0 69 3 52 9 -12 5
-27 21 -32 35 -6 15 -10 144 -10 298 l0 271 71 -69 c152 -150 268 -317 327
-472 47 -126 52 -106 52 221 0 308 5 351 44 366 15 6 0 9 -49 9 -48 0 -64 -3
-49 -9 12 -4 25 -17 29 -27 9 -19 19 -332 13 -393 l-3 -35 -34 60 c-50 88
-127 187 -236 303 l-97 102 -76 -1 c-55 0 -71 -3 -55 -9z"/>
<path d="M3906 2840 c38 -15 44 -59 44 -325 0 -266 -6 -310 -44 -325 -12 -5
84 -9 239 -9 l260 -1 27 88 c18 61 21 80 10 62 -26 -40 -77 -85 -119 -106 -30
-15 -65 -20 -160 -22 l-123 -4 0 136 c0 134 0 136 26 152 23 16 29 16 84 0
104 -28 145 -21 183 34 24 35 21 43 -8 24 -24 -16 -30 -15 -100 5 -86 26 -129
19 -165 -26 l-20 -26 0 173 0 173 113 -5 c136 -6 182 -23 238 -86 22 -25 38
-39 35 -31 -3 8 -12 40 -21 72 l-16 57 -252 -1 c-151 0 -243 -4 -231 -9z"/>
<path d="M3880 1985 l0 -155 35 0 35 0 0 63 c0 68 17 97 56 97 37 0 46 -16 52
-89 5 -71 5 -71 34 -71 l30 0 -3 85 c-3 70 -8 88 -25 106 -39 38 -134 19 -134
-28 0 -7 -7 -13 -15 -13 -11 0 -12 5 -5 26 6 14 10 50 10 80 l0 54 -35 0 -35
0 0 -155z"/>
<path d="M3721 2039 c-37 -8 -51 -23 -51 -55 0 -27 17 -41 77 -64 50 -19 64
-34 38 -43 -17 -7 -65 8 -65 21 0 5 -13 7 -30 4 -70 -10 -6 -72 74 -72 63 0
96 20 96 59 0 34 -11 44 -74 68 -53 19 -64 36 -28 41 13 2 25 -3 28 -12 4 -10
18 -16 40 -16 38 0 42 8 17 39 -22 27 -76 40 -122 30z"/>
<path d="M4235 2042 c-69 -12 -100 -46 -98 -108 2 -66 45 -104 119 -104 76 0
123 54 111 127 -4 20 -15 45 -25 56 -21 20 -75 35 -107 29z m59 -74 c21 -30
20 -44 -4 -68 -38 -38 -90 -15 -90 40 0 50 66 69 94 28z"/>
<path d="M4390 1895 l0 -145 31 0 31 0 -4 65 c-2 36 -1 65 2 65 4 0 16 -11 28
-25 24 -28 84 -34 113 -12 54 41 49 169 -6 191 -38 14 -86 6 -109 -19 -13 -14
-26 -25 -30 -25 -3 0 -4 11 0 25 6 23 3 25 -25 25 l-31 0 0 -145z m164 76 c24
-26 17 -62 -16 -81 -25 -13 -31 -13 -55 0 -33 18 -42 60 -18 84 22 22 68 20
89 -3z"/>
</g>
</svg>
